<?xml version="1.0" encoding="UTF-8"?>
<svg id="Layer_2" data-name="Layer 2" xmlns="http://www.w3.org/2000/svg" viewBox="0 0 442.64 551.68">
  <defs>
    <style>
      .cls-1 {
        fill: #227cae;
      }

      .cls-1, .cls-2, .cls-3, .cls-4, .cls-5 {
        stroke-width: 0px;
      }

      .cls-2 {
        fill: #f5d6b8;
      }

      .cls-3 {
        fill: #132232;
      }

      .cls-4 {
        fill: #f79463;
      }

      .cls-5 {
        fill: #8caab5;
      }
    </style>
  </defs>
  <g id="Layer_1-2" data-name="Layer 1">
    <g>
      <path class="cls-3" d="M253.48,191.74c14.2-.27,28.03-2.86,41.58-6.9,36.25-10.81,65.84-31.71,90.71-59.88,20.22-22.9,34.37-49.1,43.65-78.07.91-2.84,1.6-5.77,3.29-8.31,1.44-2.16,3.45-3.18,5.99-2.58,2.65.63,3.6,2.73,3.84,5.22.08.83.04,1.66.04,2.5-.02,98.28.18,196.55-.17,294.83-.12,33.85-9.2,65.66-25.27,95.46-14.98,27.78-35.99,50.14-61.52,68.41-7.28,5.21-14.62,10.37-23.01,13.78-.78.32-1.25,1.42-1.85,2.14,2.06,1.65,4.3,1.21,6.43,1.21,28.15.02,56.3,0,84.44.04,10.17.01,17.26,6.24,17.38,15.1.12,9.41-7.72,16.99-17.74,16.99-134.41,0-268.82-.02-403.23-.04-8.94,0-16.55-6.1-17.89-14.2-1.11-6.71,4.05-14.68,11.02-17.15,2.59-.92,5.26-.73,7.9-.73,26.32-.02,52.63-.01,78.95.03,2.49,0,4.93-.05,7.86-1.44-8.58-4.36-16.09-9.69-23.57-15.11-30.54-22.15-52.76-50.81-66.95-85.66-8.3-20.38-12.89-41.52-11.54-63.69,2.99,6.26,5.93,12.52,9.6,18.44,10.53,16.99,24.9,29,44.23,34.73.33.93.74,1.85.99,2.81,5.63,21.73,14.88,41.69,29.79,58.63,28.57,32.48,64.43,50.83,107.66,54.14,12.77.98,25.57.44,38.32-4.12-1.56-.58-2.63-1-3.72-1.37-33.02-11.15-57.15-31.31-66.74-66.09-.53-1.92-1.7-2.61-3.15-3.45-25.56-15.02-38.57-45.2-32.7-74.55,3.65-18.22,13.13-32.44,27.66-43.6,11.79-8.38,24.92-13.5,39.32-14.28,43.48-2.37,77.22,29.92,77.66,73.56.09,9.04-1.77,17.88-1.81,26.86-.14,32.3-.1,64.61-.32,96.91-.03,4.24.68,5.3,4.8,3.28,15.32-7.52,29.8-16.37,42.32-27.98,39.56-36.7,55.57-82.16,49.1-135.54-1.88-15.48-7.01-29.91-13.74-44.17-5.4-11.47-12.02-21.85-19.83-31.4-24.69-30.19-56.82-48.02-95.09-54.99-7.87-11.24-19.15-17.96-31.22-23.66-5.32-2.51-11.22-3.65-16.26-6.81,3.14-.87,6.24.01,9.34.26,17.81,1.41,35.62,2.57,53.46.48Z"/>
      <path class="cls-4" d="M253.48,191.74c-17.84,2.09-35.65.93-53.46-.48-3.11-.25-6.2-1.13-9.34-.26-4.6-1.11-9.04-2.66-13.86-3.13-13.73-1.34-27.43-1.37-41.16-.38-7.9-6.88-15.26-14.16-21.3-22.89-6.5-9.39-11.75-19.22-14.97-30.15-5.08-17.27-4.96-34.76-1.88-52.3,3.56-20.26,13.25-37.53,27.78-51.74C147.57,8.63,174.52-2.72,205.8.55c37.61,3.93,66.75,22.69,83.45,56.91,17.77,36.43,13.9,72.66-7.3,106.84-6.04,9.74-14.81,17.38-24.39,23.86-1.49,1.01-3.17,1.88-4.08,3.58Z"/>
      <path class="cls-1" d="M135.65,187.5c13.73-.99,27.43-.96,41.16.38,4.83.47,9.26,2.02,13.86,3.13,5.05,3.16,10.94,4.3,16.26,6.81,12.07,5.7,23.36,12.42,31.22,23.66-14.86-2.09-29.82-3.04-44.64-.6-32.26,5.31-60.86,18.64-84.54,41.39-11.09,10.66-21.14,22.38-29.44,35.45-14.31,20.57-21.59,43.65-23.75,68.39-1.19,13.62-.39,27.24,1.86,40.75-19.33-5.74-33.7-17.75-44.23-34.73-3.67-5.92-6.61-12.19-9.6-18.44-1.72-31.25,5.73-60.38,21.35-87.26,23.6-40.61,58.59-66.14,104.33-76.91,2.09-.49,4.11-1.33,6.16-2Z"/>
      <path class="cls-5" d="M79.54,297.72c8.3-13.08,18.35-24.8,29.44-35.45,23.68-22.75,52.28-36.08,84.54-41.39,14.82-2.44,29.78-1.49,44.64.6,38.27,6.97,70.4,24.8,95.09,54.99,7.81,9.55,14.43,19.94,19.83,31.4,6.72,14.27,11.86,28.7,13.74,44.17,6.47,53.38-9.54,98.84-49.1,135.54-12.51,11.61-27,20.46-42.32,27.98-4.13,2.03-4.83.96-4.8-3.28.21-32.3.17-64.61.32-96.91.04-8.98,1.9-17.82,1.81-26.86-.44-43.64-34.18-75.92-77.66-73.56-14.4.78-27.53,5.9-39.32,14.28-4.51-6.89-10.36-12.53-16.82-17.53-14.16-10.97-30.05-16.79-48.13-15.76-3.79.22-7.37,2.02-11.26,1.75Z"/>
      <path class="cls-2" d="M79.54,297.72c3.89.26,7.47-1.54,11.26-1.75,18.08-1.04,33.97,4.79,48.13,15.76,6.46,5,12.31,10.64,16.82,17.53-14.53,11.17-24.01,25.39-27.66,43.61-5.88,29.36,7.14,59.54,32.7,74.55,1.44.85,2.62,1.53,3.15,3.45,9.59,34.78,33.72,54.93,66.74,66.09,1.09.37,2.17.8,3.72,1.37-12.75,4.56-25.54,5.1-38.32,4.12-43.22-3.32-79.09-21.67-107.66-54.14-14.9-16.94-24.16-36.9-29.79-58.63-.25-.96-.66-1.87-.99-2.81-2.25-13.51-3.04-27.14-1.86-40.75,2.15-24.74,9.44-47.81,23.75-68.39Z"/>
    </g>
  </g>
</svg>